<svg width="1414" height="453" viewBox="0 0 1414 453" fill="none" xmlns="http://www.w3.org/2000/svg">
<path opacity="0.5" fill-rule="evenodd" clip-rule="evenodd" d="M1357.26 408.568C1297.18 436.267 1141.19 479.122 997.735 428.939C975.297 421.089 959.73 411.451 949.196 400.557C938.657 389.656 933.177 377.521 930.879 364.721C928.583 351.93 929.467 338.487 931.632 324.964C933.196 315.199 935.434 305.366 937.634 295.698L937.634 295.697L937.637 295.682C938.481 291.973 939.32 288.288 940.112 284.641C945.849 258.244 949.172 233.845 935.431 215.564C921.687 197.277 890.722 184.927 827.288 183.132C731.842 180.43 666.428 204.046 611.015 224.051C592.821 230.619 575.706 236.798 558.96 241.529C525.087 251.097 492.745 254.721 456.138 243.553C419.546 232.389 378.749 206.464 327.92 157.05C277.182 107.725 234.823 93.0596 197.012 97.544C159.161 102.033 125.739 125.723 92.897 153.432C84.9636 160.126 77.0636 167.055 69.1447 174L69.1445 174.001C44.3236 195.771 19.3179 217.703 -7.47981 233.057C-42.8704 253.334 -81.4569 262.185 -127 244.157L-126.632 243.227C-81.4416 261.116 -43.1765 252.357 -7.97694 232.189C18.7255 216.89 43.6233 195.053 68.4266 173.299C76.3594 166.341 84.2826 159.392 92.2521 152.668C125.098 124.955 158.721 101.078 196.895 96.5509C235.109 92.0186 277.752 106.885 328.617 156.333C379.391 205.692 420.053 231.498 456.429 242.596C492.79 253.689 524.924 250.104 558.688 240.567C575.348 235.86 592.409 229.7 610.567 223.145C666.004 203.13 731.662 179.424 827.317 182.132C890.768 183.928 922.182 196.272 936.231 214.963C950.283 233.659 946.812 258.521 941.09 284.853C940.292 288.524 939.45 292.224 938.604 295.942L938.602 295.951L938.601 295.955C936.404 305.61 934.178 315.393 932.62 325.122C930.462 338.594 929.596 351.912 931.863 364.544C934.129 377.167 939.525 389.116 949.915 399.862C960.311 410.613 975.727 420.18 998.065 427.995C1141.18 478.061 1296.89 435.299 1356.84 407.66L1357.26 408.568ZM1016.64 397.012C1160.09 447.196 1316.08 404.341 1376.17 376.641L1375.75 375.733C1315.8 403.373 1160.08 446.134 1016.97 396.068C994.631 388.254 979.214 378.686 968.819 367.935C958.429 357.19 953.032 345.24 950.767 332.617C948.499 319.985 949.366 306.668 951.523 293.195C953.081 283.468 955.307 273.686 957.503 264.032L957.505 264.028L957.505 264.024L957.507 264.014L957.509 264.006C958.355 260.29 959.196 256.594 959.993 252.927C965.716 226.595 969.186 201.732 955.134 183.036C941.085 164.345 909.671 152.002 846.22 150.205C750.565 147.498 684.907 171.203 629.471 191.218C611.313 197.774 594.251 203.934 577.591 208.64C543.827 218.177 511.693 221.762 475.333 210.669C438.956 199.571 398.294 173.766 347.521 124.406C296.656 74.9581 254.012 60.0918 215.798 64.6242C177.624 69.1517 144.001 93.0281 111.155 120.741C103.186 127.465 95.2628 134.414 87.3299 141.372C62.5266 163.126 37.6288 184.964 10.9264 200.263C-24.2732 220.43 -62.5383 229.189 -107.729 211.3L-108.097 212.23C-62.5536 230.258 -23.967 221.407 11.4235 201.13C38.2212 185.777 63.2269 163.844 88.0476 142.074L88.048 142.074C95.9669 135.128 103.867 128.199 111.8 121.505C144.642 93.7957 178.065 70.1065 215.916 65.6172C253.726 61.1328 296.086 75.7986 346.823 125.123C397.653 174.537 438.45 200.462 475.041 211.626C511.648 222.794 543.99 219.171 577.863 209.602C594.609 204.872 611.725 198.693 629.918 192.124C685.331 172.119 750.746 148.503 846.192 151.205C909.625 153.001 940.59 165.351 954.335 183.637C968.075 201.918 964.753 226.318 959.016 252.714C958.223 256.362 957.385 260.046 956.541 263.755L956.537 263.77L956.537 263.772L956.536 263.774C954.337 273.441 952.099 283.274 950.536 293.037C948.37 306.56 947.487 320.004 949.782 332.794C952.08 345.594 957.56 357.73 968.1 368.63C978.634 379.524 994.2 389.163 1016.64 397.012ZM1395.07 344.714C1334.99 372.414 1178.99 415.269 1035.54 365.085C1013.1 357.236 997.536 347.598 987.002 336.703C976.462 325.803 970.982 313.667 968.685 300.867C966.389 288.077 967.272 274.634 969.438 261.11C971.002 251.347 973.239 241.515 975.439 231.847L975.439 231.845L975.44 231.843L975.443 231.829C976.287 228.12 977.125 224.435 977.918 220.788C983.655 194.391 986.978 169.992 973.237 151.71C959.493 133.424 928.527 121.074 865.094 119.278C769.648 116.576 704.234 140.192 648.821 160.198C630.627 166.766 613.512 172.945 596.765 177.675C562.893 187.244 530.55 190.867 493.943 179.699C457.352 168.536 416.555 142.61 365.726 93.1966C314.988 43.8719 272.628 29.206 234.818 33.6905C196.967 38.1797 163.544 61.869 130.703 89.5786C122.77 96.2717 114.871 103.2 106.953 110.145L106.951 110.147C82.1296 131.917 57.1237 153.85 30.3258 169.204C-5.06471 189.481 -43.6513 198.332 -89.1943 180.303L-88.8263 179.373C-43.6359 197.262 -5.37083 188.504 29.8287 168.336C56.5311 153.037 81.4289 131.2 106.232 109.445C114.165 102.488 122.088 95.5385 130.058 88.8143C162.903 61.1013 196.527 37.2249 234.7 32.6974C272.915 28.1651 315.558 43.0313 366.423 92.4796C417.196 141.839 457.858 167.645 494.235 178.743C530.596 189.836 562.729 186.251 596.493 176.713C613.153 172.007 630.215 165.847 648.373 159.291C703.81 139.276 769.467 115.571 865.122 118.279C928.574 120.075 959.988 132.418 974.036 151.109C988.089 169.805 984.618 194.668 978.895 221C978.097 224.673 977.254 228.376 976.407 232.098C974.21 241.755 971.984 251.539 970.426 261.268C968.268 274.741 967.401 288.058 969.669 300.691C971.935 313.313 977.331 325.263 987.721 336.008C998.117 346.759 1013.53 356.327 1035.87 364.141C1178.99 414.207 1334.7 371.446 1394.65 343.806L1395.07 344.714ZM1413.97 312.788C1353.89 340.488 1197.9 383.343 1054.44 333.16C1032.01 325.31 1016.44 315.672 1005.91 304.777C995.366 293.877 989.886 281.742 987.588 268.941C985.292 256.151 986.176 242.708 988.341 229.185C989.905 219.421 992.142 209.589 994.342 199.922L994.343 199.919L994.343 199.917L994.346 199.903C995.19 196.194 996.029 192.509 996.821 188.862C1002.56 162.465 1005.88 138.066 992.14 119.784C978.396 101.498 947.431 89.1481 883.997 87.3525C788.551 84.6507 723.137 108.267 667.724 128.272C649.53 134.84 632.415 141.019 615.669 145.75C581.796 155.318 549.454 158.941 512.846 147.773C476.255 136.61 435.458 110.684 384.629 61.2708C333.891 11.9461 291.532 -2.71976 253.721 1.76468C215.87 6.25394 182.448 29.9432 149.606 57.6528C141.673 64.3459 133.774 71.2743 125.856 78.2193L125.854 78.221C101.033 99.9915 76.0271 121.924 49.2292 137.278C13.8386 157.555 -24.748 166.406 -70.291 148.377L-69.923 147.447C-24.7326 165.336 13.5325 156.578 48.732 136.41C75.4344 121.111 100.332 99.2739 125.135 77.5197C133.068 70.5619 140.992 63.6127 148.961 56.8885C181.807 29.1756 215.43 5.29913 253.603 0.771637C291.818 -3.76071 334.461 11.1056 385.326 60.5538C436.099 109.913 476.762 135.719 513.138 146.817C549.499 157.91 581.633 154.325 615.397 144.787C632.057 140.081 649.118 133.921 667.276 127.365C722.713 107.35 788.371 83.6451 884.026 86.3529C947.477 88.149 978.891 100.492 992.94 119.184C1006.99 137.88 1003.52 162.742 997.799 189.074C997 192.748 996.158 196.45 995.311 200.172C993.113 209.829 990.887 219.613 989.329 229.343C987.171 242.815 986.305 256.132 988.572 268.765C990.838 281.387 996.234 293.337 1006.62 304.082C1017.02 314.834 1032.44 324.401 1054.77 332.216C1197.89 382.282 1353.6 339.52 1413.55 311.88L1413.97 312.788Z" fill="url(#paint0_linear_1_279)"/>
<defs>
<linearGradient id="paint0_linear_1_279" x1="50.2098" y1="114.742" x2="1400.79" y2="114.742" gradientUnits="userSpaceOnUse">
<stop offset="0.310417" stop-color="white" stop-opacity="0.7"/>
<stop offset="0.461458" stop-color="white" stop-opacity="0.1"/>
<stop offset="0.851637" stop-color="white" stop-opacity="0.8"/>
</linearGradient>
</defs>
</svg>
