<svg width="57" height="57" viewBox="0 0 57 57" fill="none" xmlns="http://www.w3.org/2000/svg">
<g opacity="0.8">
<rect x="0.10791" y="0.424438" width="56" height="56" rx="6" fill="#FBECF6"/>
<path d="M34.7747 36.9978H29.4413L23.508 40.9445C22.628 41.5311 21.4413 40.9045 21.4413 39.8379V36.9978C17.4413 36.9978 14.7747 34.3312 14.7747 30.3312V22.3311C14.7747 18.3311 17.4413 15.6644 21.4413 15.6644H34.7747C38.7747 15.6644 41.4413 18.3311 41.4413 22.3311V30.3312C41.4413 34.3312 38.7747 36.9978 34.7747 36.9978Z" stroke="#DD2590" stroke-opacity="0.8" stroke-width="1.37143" stroke-miterlimit="10" stroke-linecap="round" stroke-linejoin="round"/>
<path opacity="0.4" d="M28.1078 27.5711V27.2912C28.1078 26.3845 28.6679 25.9045 29.2279 25.5178C29.7745 25.1445 30.3211 24.6645 30.3211 23.7845C30.3211 22.5578 29.3345 21.5711 28.1078 21.5711C26.8812 21.5711 25.8945 22.5578 25.8945 23.7845" stroke="#DD2590" stroke-opacity="0.8" stroke-width="1.37143" stroke-linecap="round" stroke-linejoin="round"/>
<path opacity="0.4" d="M28.1018 30.7578H28.1138" stroke="#DD2590" stroke-opacity="0.8" stroke-width="1.37143" stroke-linecap="round" stroke-linejoin="round"/>
</g>
</svg>
