<svg width="56" height="57" viewBox="0 0 56 57" fill="none" xmlns="http://www.w3.org/2000/svg">
<g opacity="0.8">
<rect y="0.575531" width="56" height="56" rx="6" fill="#FDEEE1"/>
<path d="M41.3336 18.8021V34.8956C41.3336 36.1756 40.2936 37.3756 39.0136 37.5356L38.5736 37.589C35.6669 37.9756 31.1868 39.4556 28.6268 40.8689C28.2801 41.0689 27.7069 41.0689 27.3469 40.8689L27.2935 40.8423C24.7334 39.4423 20.2668 37.9756 17.3735 37.589L16.9868 37.5356C15.7067 37.3756 14.6667 36.1756 14.6667 34.8956V18.7888C14.6667 17.2021 15.9601 16.0021 17.5467 16.1354C20.3468 16.3621 24.5868 17.7755 26.9601 19.2555L27.2935 19.4554C27.6801 19.6954 28.3202 19.6954 28.7069 19.4554L28.9335 19.3088C29.7735 18.7888 30.8402 18.2688 32.0002 17.8021C33.7469 17.1088 35.6936 16.5488 37.3336 16.2822C37.6936 16.2155 38.0403 16.1754 38.3603 16.1488H38.4403C40.027 16.0154 41.3336 17.2021 41.3336 18.8021Z" stroke="#EC4A0A" stroke-opacity="0.8" stroke-width="2.00001" stroke-linecap="round" stroke-linejoin="round"/>
<path opacity="0.4" d="M28 19.8954V39.8956" stroke="#EC4A0A" stroke-opacity="0.8" stroke-width="2.00001" stroke-linecap="round" stroke-linejoin="round"/>
<path opacity="0.4" d="M37.3336 16.2821V23.2421L34.6669 21.4688L32.0002 23.2421V17.8021C33.7469 17.1087 35.6936 16.5488 37.3336 16.2821Z" stroke="#EC4A0A" stroke-opacity="0.8" stroke-width="2.00001" stroke-linecap="round" stroke-linejoin="round"/>
</g>
</svg>
