<svg width="173" height="32" viewBox="0 0 173 32" fill="none" xmlns="http://www.w3.org/2000/svg">
<circle cx="15.5" cy="16" r="15.5" fill="#725CFF"/>
<path d="M12.6957 23.2081C8.45361 21.9208 6.05821 17.4384 7.34546 13.1963C8.63271 8.95413 13.1152 6.55873 17.3573 7.84598L24.8108 10.2984L22.7076 17.8578C21.4203 22.0999 16.9379 24.4953 12.6957 23.2081Z" fill="white"/>
<path d="M14.2215 18.8899C12.2933 18.3048 11.2045 16.2673 11.7896 14.3391C12.3747 12.4108 14.4122 11.322 16.3404 11.9071L19.7284 13.0218L18.7723 16.4579C18.1872 18.3862 16.1498 19.475 14.2215 18.8899Z" fill="#725CFF"/>
<path d="M46.7871 25.24C45.8111 25.24 44.9151 25.12 44.0991 24.88C43.2831 24.624 42.5471 24.248 41.8911 23.752C41.2351 23.256 40.6511 22.656 40.1391 21.952L42.1791 19.648C42.9631 20.736 43.7311 21.488 44.4831 21.904C45.2351 22.32 46.0831 22.528 47.0271 22.528C47.5711 22.528 48.0671 22.448 48.5151 22.288C48.9631 22.112 49.3151 21.88 49.5711 21.592C49.8271 21.288 49.9551 20.944 49.9551 20.56C49.9551 20.288 49.8991 20.04 49.7871 19.816C49.6911 19.576 49.5391 19.368 49.3311 19.192C49.1231 19 48.8671 18.824 48.5631 18.664C48.2591 18.504 47.9151 18.368 47.5311 18.256C47.1471 18.144 46.7231 18.04 46.2591 17.944C45.3791 17.768 44.6111 17.536 43.9551 17.248C43.2991 16.944 42.7471 16.576 42.2991 16.144C41.8511 15.696 41.5231 15.2 41.3151 14.656C41.1071 14.096 41.0031 13.464 41.0031 12.76C41.0031 12.056 41.1551 11.408 41.4591 10.816C41.7791 10.224 42.2111 9.712 42.7551 9.28C43.2991 8.848 43.9311 8.512 44.6511 8.272C45.3711 8.032 46.1471 7.912 46.9791 7.912C47.9231 7.912 48.7631 8.024 49.4991 8.248C50.2511 8.472 50.9071 8.808 51.4671 9.256C52.0431 9.688 52.5151 10.216 52.8831 10.84L50.8191 12.88C50.4991 12.384 50.1391 11.976 49.7391 11.656C49.3391 11.32 48.9071 11.072 48.4431 10.912C47.9791 10.736 47.4911 10.648 46.9791 10.648C46.4031 10.648 45.8991 10.728 45.4671 10.888C45.0511 11.048 44.7231 11.28 44.4831 11.584C44.2431 11.872 44.1231 12.224 44.1231 12.64C44.1231 12.96 44.1951 13.248 44.3391 13.504C44.4831 13.744 44.6831 13.96 44.9391 14.152C45.2111 14.344 45.5551 14.512 45.9711 14.656C46.3871 14.8 46.8591 14.928 47.3871 15.04C48.2671 15.216 49.0591 15.456 49.7631 15.76C50.4671 16.048 51.0671 16.4 51.5631 16.816C52.0591 17.216 52.4351 17.68 52.6911 18.208C52.9471 18.72 53.0751 19.296 53.0751 19.936C53.0751 21.04 52.8111 21.992 52.2831 22.792C51.7711 23.576 51.0431 24.184 50.0991 24.616C49.1551 25.032 48.0511 25.24 46.7871 25.24ZM57.346 25V9.136H60.298V25H57.346ZM54.85 15.088V12.352H63.058V15.088H54.85ZM69.6981 25.24C68.7861 25.24 67.9941 25.04 67.3221 24.64C66.6501 24.224 66.1381 23.64 65.7861 22.888C65.4341 22.12 65.2581 21.208 65.2581 20.152V12.352H68.2101V19.528C68.2101 20.2 68.3141 20.776 68.5221 21.256C68.7301 21.72 69.0341 22.08 69.4341 22.336C69.8341 22.592 70.3141 22.72 70.8741 22.72C71.2901 22.72 71.6661 22.656 72.0021 22.528C72.3541 22.384 72.6581 22.192 72.9141 21.952C73.1701 21.696 73.3701 21.4 73.5141 21.064C73.6581 20.712 73.7301 20.336 73.7301 19.936V12.352H76.6821V25H73.8021L73.7541 22.36L74.2821 22.072C74.0901 22.68 73.7621 23.224 73.2981 23.704C72.8501 24.168 72.3141 24.544 71.6901 24.832C71.0661 25.104 70.4021 25.24 69.6981 25.24ZM85.5661 25.24C84.3821 25.24 83.3181 24.952 82.3741 24.376C81.4301 23.8 80.6861 23.016 80.1421 22.024C79.5981 21.032 79.3261 19.912 79.3261 18.664C79.3261 17.416 79.5981 16.296 80.1421 15.304C80.6861 14.312 81.4301 13.528 82.3741 12.952C83.3181 12.376 84.3821 12.088 85.5661 12.088C86.7021 12.088 87.7341 12.304 88.6621 12.736C89.5901 13.168 90.3101 13.768 90.8221 14.536L89.1901 16.504C88.9501 16.168 88.6461 15.864 88.2781 15.592C87.9101 15.32 87.5181 15.104 87.1021 14.944C86.6861 14.784 86.2701 14.704 85.8541 14.704C85.1501 14.704 84.5181 14.88 83.9581 15.232C83.4141 15.568 82.9821 16.04 82.6621 16.648C82.3421 17.24 82.1821 17.912 82.1821 18.664C82.1821 19.416 82.3421 20.088 82.6621 20.68C82.9981 21.272 83.4461 21.744 84.0061 22.096C84.5661 22.448 85.1901 22.624 85.8781 22.624C86.2941 22.624 86.6941 22.56 87.0781 22.432C87.4781 22.288 87.8541 22.088 88.2061 21.832C88.5581 21.576 88.8861 21.256 89.1901 20.872L90.8221 22.864C90.2781 23.568 89.5261 24.144 88.5661 24.592C87.6221 25.024 86.6221 25.24 85.5661 25.24ZM97.8556 25.24C96.8156 25.24 95.8716 24.952 95.0236 24.376C94.1756 23.8 93.4956 23.016 92.9836 22.024C92.4716 21.032 92.2156 19.904 92.2156 18.64C92.2156 17.376 92.4716 16.248 92.9836 15.256C93.4956 14.264 94.1916 13.488 95.0716 12.928C95.9516 12.368 96.9436 12.088 98.0476 12.088C98.6876 12.088 99.2716 12.184 99.7996 12.376C100.328 12.552 100.792 12.808 101.192 13.144C101.592 13.48 101.92 13.864 102.176 14.296C102.448 14.728 102.632 15.192 102.728 15.688L102.08 15.52V12.352H105.056V25H102.056V21.976L102.752 21.856C102.64 22.288 102.432 22.712 102.128 23.128C101.84 23.528 101.472 23.888 101.024 24.208C100.592 24.512 100.104 24.76 99.5596 24.952C99.0316 25.144 98.4636 25.24 97.8556 25.24ZM98.6716 22.624C99.3596 22.624 99.9676 22.456 100.496 22.12C101.024 21.784 101.432 21.32 101.72 20.728C102.024 20.12 102.176 19.424 102.176 18.64C102.176 17.872 102.024 17.192 101.72 16.6C101.432 16.008 101.024 15.544 100.496 15.208C99.9676 14.872 99.3596 14.704 98.6716 14.704C97.9836 14.704 97.3756 14.872 96.8476 15.208C96.3356 15.544 95.9356 16.008 95.6476 16.6C95.3596 17.192 95.2156 17.872 95.2156 18.64C95.2156 19.424 95.3596 20.12 95.6476 20.728C95.9356 21.32 96.3356 21.784 96.8476 22.12C97.3756 22.456 97.9836 22.624 98.6716 22.624ZM113.566 25.24C112.446 25.24 111.438 24.96 110.542 24.4C109.662 23.824 108.958 23.048 108.43 22.072C107.918 21.08 107.662 19.944 107.662 18.664C107.662 17.4 107.918 16.272 108.43 15.28C108.942 14.288 109.638 13.512 110.518 12.952C111.414 12.376 112.422 12.088 113.542 12.088C114.15 12.088 114.734 12.184 115.294 12.376C115.87 12.568 116.382 12.832 116.83 13.168C117.278 13.488 117.63 13.848 117.886 14.248C118.158 14.648 118.31 15.064 118.342 15.496L117.55 15.592V7.24H120.502V25H117.646L117.574 22.024L118.15 22.072C118.134 22.472 117.99 22.856 117.718 23.224C117.462 23.592 117.126 23.928 116.71 24.232C116.294 24.536 115.806 24.784 115.246 24.976C114.702 25.152 114.142 25.24 113.566 25.24ZM114.142 22.744C114.83 22.744 115.438 22.568 115.966 22.216C116.494 21.864 116.902 21.384 117.19 20.776C117.494 20.168 117.646 19.464 117.646 18.664C117.646 17.88 117.494 17.184 117.19 16.576C116.902 15.952 116.494 15.472 115.966 15.136C115.438 14.784 114.83 14.608 114.142 14.608C113.454 14.608 112.846 14.784 112.318 15.136C111.79 15.472 111.374 15.952 111.07 16.576C110.782 17.184 110.638 17.88 110.638 18.664C110.638 19.464 110.782 20.168 111.07 20.776C111.374 21.384 111.79 21.864 112.318 22.216C112.846 22.568 113.454 22.744 114.142 22.744ZM129.781 25.24C128.453 25.24 127.277 24.96 126.253 24.4C125.245 23.84 124.453 23.08 123.877 22.12C123.317 21.144 123.037 20.032 123.037 18.784C123.037 17.792 123.197 16.888 123.517 16.072C123.837 15.256 124.277 14.552 124.837 13.96C125.413 13.352 126.093 12.888 126.877 12.568C127.677 12.232 128.549 12.064 129.493 12.064C130.325 12.064 131.101 12.224 131.821 12.544C132.541 12.864 133.165 13.304 133.693 13.864C134.221 14.408 134.621 15.064 134.893 15.832C135.181 16.584 135.317 17.408 135.301 18.304L135.277 19.336H125.029L124.477 17.32H132.805L132.421 17.728V17.2C132.373 16.704 132.213 16.272 131.941 15.904C131.669 15.52 131.317 15.224 130.885 15.016C130.469 14.792 130.005 14.68 129.493 14.68C128.709 14.68 128.045 14.832 127.501 15.136C126.973 15.44 126.573 15.88 126.301 16.456C126.029 17.016 125.893 17.72 125.893 18.568C125.893 19.384 126.061 20.096 126.397 20.704C126.749 21.312 127.237 21.784 127.861 22.12C128.501 22.44 129.245 22.6 130.093 22.6C130.685 22.6 131.229 22.504 131.725 22.312C132.221 22.12 132.757 21.776 133.333 21.28L134.797 23.32C134.365 23.72 133.869 24.064 133.309 24.352C132.765 24.624 132.189 24.84 131.581 25C130.973 25.16 130.373 25.24 129.781 25.24ZM137.868 25V12.352H140.772L140.82 14.896L140.34 15.088C140.484 14.672 140.7 14.288 140.988 13.936C141.276 13.568 141.62 13.256 142.02 13C142.42 12.728 142.844 12.52 143.292 12.376C143.74 12.216 144.196 12.136 144.66 12.136C145.348 12.136 145.956 12.248 146.484 12.472C147.028 12.68 147.476 13.016 147.828 13.48C148.196 13.944 148.468 14.536 148.644 15.256L148.188 15.16L148.38 14.776C148.556 14.392 148.804 14.048 149.124 13.744C149.444 13.424 149.804 13.144 150.204 12.904C150.604 12.648 151.02 12.456 151.452 12.328C151.9 12.2 152.34 12.136 152.772 12.136C153.732 12.136 154.532 12.328 155.172 12.712C155.812 13.096 156.292 13.68 156.612 14.464C156.932 15.248 157.092 16.216 157.092 17.368V25H154.116V17.56C154.116 16.92 154.028 16.392 153.852 15.976C153.692 15.56 153.436 15.256 153.084 15.064C152.748 14.856 152.324 14.752 151.812 14.752C151.412 14.752 151.028 14.824 150.66 14.968C150.308 15.096 150.004 15.288 149.747 15.544C149.492 15.784 149.292 16.064 149.148 16.384C149.004 16.704 148.932 17.056 148.932 17.44V25H145.956V17.536C145.956 16.928 145.868 16.424 145.692 16.024C145.516 15.608 145.26 15.296 144.924 15.088C144.588 14.864 144.18 14.752 143.7 14.752C143.3 14.752 142.924 14.824 142.572 14.968C142.22 15.096 141.916 15.28 141.66 15.52C141.404 15.76 141.204 16.04 141.06 16.36C140.916 16.68 140.844 17.032 140.844 17.416V25H137.868ZM162.171 30.52L164.859 24.304L164.883 26.272L158.643 12.352H162.051L165.531 20.608C165.643 20.816 165.755 21.096 165.867 21.448C165.979 21.784 166.075 22.12 166.155 22.456L165.555 22.648C165.667 22.344 165.787 22.024 165.915 21.688C166.043 21.336 166.163 20.976 166.275 20.608L169.251 12.352H172.683L167.403 25L165.243 30.52H162.171Z" fill="#6651D1"/>
</svg>
