<svg width="57" height="57" viewBox="0 0 57 57" fill="none" xmlns="http://www.w3.org/2000/svg">
<g opacity="0.8">
<rect x="0.10791" y="0.575531" width="56" height="56" rx="6" fill="#E0FFEC"/>
<path d="M28.1078 28.5755C31.7897 28.5755 34.7745 25.5908 34.7745 21.9089C34.7745 18.227 31.7897 15.2422 28.1078 15.2422C24.4259 15.2422 21.4412 18.227 21.4412 21.9089C21.4412 25.5908 24.4259 28.5755 28.1078 28.5755Z" stroke="#039855" stroke-width="2" stroke-linecap="round" stroke-linejoin="round"/>
<path d="M37.7212 33.5622L33.0012 38.2823C32.8145 38.4689 32.6412 38.8156 32.6012 39.0689L32.3479 40.8689C32.2545 41.5222 32.7079 41.9755 33.3612 41.8822L35.1612 41.6289C35.4145 41.5889 35.7746 41.4156 35.9479 41.2289L40.6679 36.5089C41.4812 35.6956 41.8679 34.7489 40.6679 33.5489C39.4812 32.3622 38.5346 32.7489 37.7212 33.5622Z" stroke="#039855" stroke-width="2" stroke-miterlimit="10" stroke-linecap="round" stroke-linejoin="round"/>
<path d="M37.0415 34.2422C37.4415 35.6822 38.5615 36.8021 40.0015 37.2021" stroke="#039855" stroke-width="2" stroke-miterlimit="10" stroke-linecap="round" stroke-linejoin="round"/>
<path opacity="0.4" d="M16.6545 41.9089C16.6545 36.7489 21.7879 32.5755 28.1079 32.5755C29.4946 32.5755 30.8279 32.7755 32.0679 33.1489" stroke="#039855" stroke-width="2" stroke-linecap="round" stroke-linejoin="round"/>
</g>
</svg>
